<?xml version="1.0" encoding="utf-8"?>

<!DOCTYPE svg PUBLIC "-//W3C//DTD SVG 1.1//EN" "http://www.w3.org/Graphics/SVG/1.1/DTD/svg11.dtd">
<!-- Uploaded to: SVG Repo, www.svgrepo.com, Generator: SVG Repo Mixer Tools -->
<svg version="1.1" id="_x32_" xmlns="http://www.w3.org/2000/svg" xmlns:xlink="http://www.w3.org/1999/xlink" 
	 width="800px" height="800px" viewBox="0 0 512 512"  xml:space="preserve">
<style type="text/css">
<![CDATA[
	.st0{fill:#ffffff;}
]]>
</style>
<g>
	<path class="st0" d="M233.449,111.887l-142.5,26.344c-4.922,0.953-28.547,5.359-42.828,30.344c-2.5,4.359-29.453,58-29.453,58
		l33.016,20.516l33.906-41.047l41.531,29.047L233.449,111.887z"/>
	<path class="st0" d="M400.839,279.262l-26.344,142.5c-0.953,4.922-5.375,28.563-30.344,42.844
		c-4.359,2.484-58.016,29.438-58.016,29.438l-20.516-33.016l41.047-33.906l-29.047-41.532L400.839,279.262z"/>
	<path class="st0" d="M155.777,259.622l-7.531,8.531c-9.188,11.344-8.328,27.813,2.016,38.141l56.172,56.172
		c10.328,10.344,26.781,11.203,38.141,2.016l8.531-7.531L155.777,259.622z"/>
	<path class="st0" d="M495.512,17.215c-52.344-52.344-166.875,31.234-220.407,92.797L164.839,235.325l112.563,112.563
		l125.313-110.281C464.277,184.075,547.855,69.543,495.512,17.215z M265.292,247.418c-12.203-12.188-12.203-31.953,0-44.156
		c12.188-12.203,31.969-12.203,44.156,0c12.203,12.203,12.203,31.969,0.016,44.156C297.261,259.622,277.48,259.622,265.292,247.418z
		 M349.605,163.106c-17.375-17.375-17.375-45.531,0.016-62.891c17.359-17.391,45.531-17.391,62.891-0.016
		c17.375,17.375,17.375,45.531,0,62.906C395.152,180.481,366.98,180.481,349.605,163.106z"/>
	<path class="st0" d="M164.808,464.356l32.594-82.157l-18.891-18.875l-17.266,32.734l-8.938-17.859l-32.563,12.047l16.953-33.031
		l-17.844-8.922l28.734-15.891l-18.469-18.484c-17.406,9.391-79.234,32.484-79.234,32.484c-0.484,0.188-0.797,0.625-0.828,1.125
		c-0.047,0.516,0.203,0.984,0.625,1.25l31.516,19.391c0.594,0.375,0.813,1.125,0.5,1.75l-45.016,44.047
		c-0.25,0.5,1.172,2.047,1.688,1.859l30.859,4.828l-69.234,69.234l21.422,21.391l82.25-82.25l0.016,35.625
		c0,0.547,0.313,1.031,0.828,1.25c0.5,0.203,1.063,0.094,1.453-0.281l31.438-31.438c0.266-0.281,0.641-0.422,1.047-0.391
		c0.391,0.016,0.734,0.203,0.969,0.516l23.078,30.359c0.281,0.391,0.75,0.578,1.234,0.516
		C164.23,465.106,164.621,464.794,164.808,464.356z"/>
</g>
</svg>